Coordinates
version=1
nRows=12
nColumns=24
inDegrees=yes

Units are S.I. units (second, meters, Newtons, ...)
Angles are in degrees.

endheader
time	pelvis_tilt	pelvis_list	pelvis_rotation	pelvis_tx	pelvis_ty	pelvis_tz	hip_flexion_r	hip_adduction_r	hip_rotation_r	knee_angle_r	ankle_angle_r	subtalar_angle_r	mtp_angle_r	hip_flexion_l	hip_adduction_l	hip_rotation_l	knee_angle_l	ankle_angle_l	subtalar_angle_l	mtp_angle_l	lumbar_extension	lumbar_bending	lumbar_rotation
      0.85800000	     10.30026022	     -4.62537935	     -2.99987628	     -0.38934185	      1.03068036	      0.30767599	     -0.51467340	      7.55188935	      0.79978023	    -15.54379167	     -2.90707475	    -18.10939640	     -5.99271127	      2.95926752	     -8.99330151	     -7.71982580	    -68.11870908	      1.15711151	    -17.79984418	    -15.63746812	    -23.35696800	      5.91751954	      4.56991483
      0.86216667	     10.40319155	     -4.42082800	     -3.10337523	     -0.38433739	      1.03176916	      0.30804938	     -1.05849031	      7.30862702	      0.87967074	    -15.31586259	     -2.74976982	    -17.93020636	     -5.99079596	      3.41351307	     -8.76588893	     -7.73724971	    -67.83685423	      1.38914329	    -17.74106794	    -15.66168141	    -23.48677150	      5.60607474	      4.83706135
      0.86633333	     10.42088744	     -4.25702176	     -3.18238493	     -0.37925876	      1.03270361	      0.30840239	     -1.53165500	      7.11887865	      0.94337574	    -15.04293835	     -2.68481310	    -17.88872761	     -5.99060138	      3.95938908	     -8.59826305	     -7.74645910	    -67.53216289	      1.65343381	    -17.71765123	    -15.67039283	    -23.49775368	      5.35918169	      4.92862056
      0.87050000	     10.51974695	     -4.07746568	     -3.28347737	     -0.37416909	      1.03377265	      0.30874746	     -2.09771132	      6.89385231	      0.99648431	    -14.76722097	     -2.52942681	    -17.69929408	     -5.98674243	      4.37387881	     -8.40467272	     -7.79687631	    -67.11544504	      1.85654488	    -17.64598211	    -15.69762231	    -23.60010288	      5.08289222	      5.12814634
      0.87466667	     10.58653010	     -3.90463080	     -3.37426232	     -0.36908893	      1.03476553	      0.30907890	     -2.63245697	      6.67916885	      1.04228255	    -14.47682130	     -2.43078597	    -17.57567199	     -5.98350488	      4.81732277	     -8.22233701	     -7.84428137	    -66.65583648	      2.06721728	    -17.56620175	    -15.72139527	    -23.66618318	      4.82535191	      5.26163453
      0.87883333	     10.59662177	     -3.74372401	     -3.45520078	     -0.36400388	      1.03563901	      0.30938585	     -3.10402754	      6.47968015	      1.06901706	    -14.18210050	     -2.39256944	    -17.48756801	     -5.98171436	      5.31774100	     -8.05838295	     -7.88931406	    -66.16193351	      2.29946727	    -17.47485357	    -15.72946505	    -23.66898804	      4.58201102	      5.34310891
      0.88300000	     10.72600378	     -3.57192169	     -3.56839366	     -0.35890125	      1.03669237	      0.30971215	     -3.71401610	      6.24711993	      1.09396541	    -13.88039576	     -2.22936015	    -17.24767135	     -5.97285279	      5.63631842	     -7.87743108	     -7.99936175	    -65.55583185	      2.47130437	    -17.37963058	    -15.75571223	    -23.80080865	      4.31002637	      5.53431484
      0.88716667	     10.73050175	     -3.41789247	     -3.64975600	     -0.35380760	      1.03750537	      0.30998974	     -4.18420025	      6.04943140	      1.11114910	    -13.57391358	     -2.19965016	    -17.15118272	     -5.96927630	      6.10672298	     -7.72286247	     -8.06894874	    -64.94664887	      2.66882191	    -17.25957358	    -15.76438889	    -23.79925509	      4.07803465	      5.61248176
      0.89133333	     10.86432876	     -3.24376801	     -3.78637967	     -0.34869911	      1.03851373	      0.31035503	     -4.79521350	      5.80746178	      1.13701158	    -13.27690938	     -2.02819362	    -16.89951250	     -5.95725679	      6.37311004	     -7.54735137	     -8.23144850	    -64.21656637	      2.82164012	    -17.14996911	    -15.78795526	    -23.93201622	      3.79675358	      5.79874798
      0.89550000	     10.93421626	     -3.08356262	     -3.90107839	     -0.34358545	      1.03938681	      0.31067690	     -5.33996854	      5.58807642	      1.15226472	    -12.96331904	     -1.95401139	    -16.73934790	     -5.94601923	      6.70834707	     -7.39079578	     -8.37768839	    -63.45825543	      2.97583883	    -17.04161658	    -15.81047158	    -23.99359907	      3.53472957	      5.93923767
      0.89966667	     11.01342832	     -2.92972248	     -4.03527713	     -0.33847848	      1.04023821	      0.31102647	     -5.89187661	      5.37013301	      1.18490812	    -12.65471048	     -1.87131221	    -16.54386579	     -5.93201883	      7.00742450	     -7.24558340	     -8.55674544	    -62.64329822	      3.12111390	    -16.93999224	    -15.83642636	    -24.07192091	      3.28512106	      6.08956509
      0.90383333	     10.99667143	     -2.80141325	     -4.12700451	     -0.33334879	      1.04088005	      0.31131742	     -6.33892716	      5.19341384	      1.17430958	    -12.34349946	     -1.86464665	    -16.42860406	     -5.92683436	      7.42087257	     -7.13706497	     -8.69617200	    -61.82380484	      3.28448076	    -16.81516636	    -15.84525784	    -24.03230098	      3.07297863	      6.16273987
